<svg width="24" height="25" viewBox="0 0 24 25" fill="none" xmlns="http://www.w3.org/2000/svg">
<g id="Battery charging full" clip-path="url(#clip0_233_29)">
<path id="Vector" d="M21.6 16.904L21.6 14.9L22.8 14.9C23.46 14.9 24 14.36 24 13.7L24 11.3C24 10.64 23.46 10.1 22.8 10.1L21.6 10.1L21.6 8.096C21.6 7.22 20.88 6.5 20.004 6.5L1.608 6.5C0.719999 6.5 -3.14722e-08 7.22 -7.02879e-08 8.108L-4.54249e-07 16.892C-4.93064e-07 17.78 0.719999 18.5 1.596 18.5L20.004 18.5C20.88 18.5 21.6 17.78 21.6 16.904ZM10.512 15.632L4.512 12.428C3.972 12.14 4.176 11.3 4.8 11.3L9 11.3L9 9.896C9 9.44 9.48 9.152 9.888 9.368L15.888 12.572C16.428 12.86 16.224 13.7 15.6 13.7L11.4 13.7L11.4 15.104C11.4 15.548 10.92 15.848 10.512 15.632Z" fill="white"/>
</g>
<defs>
<clipPath id="clip0_233_29">
<rect width="24" height="24" fill="white" transform="translate(0 0.5)"/>
</clipPath>
</defs>
</svg>
