<svg width="16" height="16" viewBox="0 0 16 16" fill="none" xmlns="http://www.w3.org/2000/svg">
<g id="Access time" clip-path="url(#clip0_13_835)">
<path id="Vector" d="M7.992 0C3.576 0 0 3.584 0 8C0 12.416 3.576 16 7.992 16C12.416 16 16 12.416 16 8C16 3.584 12.416 0 7.992 0ZM8 14.4C4.464 14.4 1.6 11.536 1.6 8C1.6 4.464 4.464 1.6 8 1.6C11.536 1.6 14.4 4.464 14.4 8C14.4 11.536 11.536 14.4 8 14.4Z" fill="black"/>
<path id="Vector_2" d="M8.33337 4.66666H7.33337V8.66666L10.8334 10.7667L11.3334 9.94666L8.33337 8.16666V4.66666Z" fill="black"/>
</g>
<defs>
<clipPath id="clip0_13_835">
<rect width="16" height="16" fill="white"/>
</clipPath>
</defs>
</svg>
