<svg width="31" height="30" viewBox="0 0 31 30" fill="none" xmlns="http://www.w3.org/2000/svg">
<g id="Icon" clip-path="url(#clip0_113_252)">
<path id="Vector" d="M20.8 9.7C19.3375 8.2375 17.425 7.5 15.5 7.5V15L10.2 20.3C13.125 23.225 17.875 23.225 20.8125 20.3C23.7375 17.375 23.7375 12.625 20.8 9.7ZM15.5 2.5C8.6 2.5 3 8.1 3 15C3 21.9 8.6 27.5 15.5 27.5C22.4 27.5 28 21.9 28 15C28 8.1 22.4 2.5 15.5 2.5ZM15.5 25C9.975 25 5.5 20.525 5.5 15C5.5 9.475 9.975 5 15.5 5C21.025 5 25.5 9.475 25.5 15C25.5 20.525 21.025 25 15.5 25Z" fill="#C9DDC9"/>
</g>
<defs>
<clipPath id="clip0_113_252">
<rect width="30" height="30" fill="white" transform="translate(0.5)"/>
</clipPath>
</defs>
</svg>
