<svg width="24" height="25" viewBox="0 0 24 25" fill="none" xmlns="http://www.w3.org/2000/svg">
<g id="Reorder" clip-path="url(#clip0_233_25)">
<path id="Vector" d="M8.57143 10.7857L8.57143 19.3571C8.57143 19.9857 9.08571 20.5 9.71429 20.5C10.3429 20.5 10.8571 19.9857 10.8571 19.3571L10.8571 10.7857C10.8571 10.1571 10.3429 9.64286 9.71429 9.64286C9.08571 9.64286 8.57143 10.1571 8.57143 10.7857ZM4 12.7857L4 19.3571C4 19.9857 4.51429 20.5 5.14286 20.5C5.77143 20.5 6.28571 19.9857 6.28571 19.3571L6.28571 12.7857C6.28571 12.1571 5.77143 11.6429 5.14286 11.6429C4.51429 11.6429 4 12.1571 4 12.7857ZM13.1429 7.35714L13.1429 19.3571C13.1429 19.9857 13.6571 20.5 14.2857 20.5C14.9143 20.5 15.4286 19.9857 15.4286 19.3571L15.4286 7.35714C15.4286 6.72857 14.9143 6.21429 14.2857 6.21429C13.6571 6.21429 13.1429 6.72857 13.1429 7.35714ZM18.8571 2.5C18.2286 2.5 17.7143 3.01429 17.7143 3.64286L17.7143 19.3571C17.7143 19.9857 18.2286 20.5 18.8571 20.5C19.4857 20.5 20 19.9857 20 19.3571L20 3.64286C20 3.01429 19.4857 2.5 18.8571 2.5Z" fill="white"/>
</g>
<defs>
<clipPath id="clip0_233_25">
<rect width="24" height="24" fill="white" transform="translate(0 0.5)"/>
</clipPath>
</defs>
</svg>
