<svg width="24" height="25" viewBox="0 0 24 25" fill="none" xmlns="http://www.w3.org/2000/svg">
<g id="Wifi" clip-path="url(#clip0_233_33)">
<path id="Vector" d="M2.40569 10.6858C2.8978 11.1579 3.6794 11.2041 4.21011 10.7783C8.71633 7.22397 15.2585 7.22397 19.7744 10.7691C20.3148 11.1949 21.106 11.1579 21.5981 10.6858C22.1674 10.1397 22.1288 9.23256 21.5016 8.74198C15.9919 4.41934 8.02158 4.41934 2.50218 8.74198C1.87498 9.22331 1.82673 10.1304 2.40569 10.6858ZM9.89354 17.8686L11.312 19.2293C11.6883 19.5902 12.2962 19.5902 12.6725 19.2293L14.091 17.8686C14.5445 17.4336 14.448 16.6838 13.869 16.3969C12.6918 15.8137 11.283 15.8137 10.0962 16.3969C9.54616 16.6838 9.44002 17.4336 9.89354 17.8686ZM6.29435 14.416C6.76717 14.8696 7.51016 14.9159 8.06017 14.5364C10.4146 12.935 13.5796 12.935 15.934 14.5364C16.484 14.9066 17.227 14.8696 17.6998 14.416L17.7095 14.4068C18.2884 13.8514 18.2498 12.9073 17.584 12.4537C14.2647 10.1489 9.73915 10.1489 6.41015 12.4537C5.74434 12.9165 5.70575 13.8514 6.29435 14.416Z" fill="white"/>
</g>
<defs>
<clipPath id="clip0_233_33">
<rect width="24" height="24" fill="white" transform="translate(0 0.5)"/>
</clipPath>
</defs>
</svg>
