<svg width="221" height="299" viewBox="0 0 221 299" fill="none" xmlns="http://www.w3.org/2000/svg">
<g clip-path="url(#clip0_2_472)">
<path d="M62.4116 298.783C96.7048 298.783 124.505 231.947 124.505 149.5C124.505 67.0533 96.7048 0.216949 62.4116 0.216949C28.1184 0.216949 0.318329 67.0533 0.318329 149.5C0.318329 231.947 28.1184 298.783 62.4116 298.783Z" stroke="#DAFF8C" stroke-width="2" stroke-miterlimit="10"/>
<path d="M105.036 298.783C139.329 298.783 167.129 231.947 167.129 149.5C167.129 67.0533 139.329 0.216949 105.036 0.216949C70.7427 0.216949 42.9426 67.0533 42.9426 149.5C42.9426 231.947 70.7427 298.783 105.036 298.783Z" stroke="#DAFF8C" stroke-width="2" stroke-miterlimit="10"/>
<path d="M158.585 298.783C192.878 298.783 220.678 231.947 220.678 149.5C220.678 67.0533 192.878 0.216949 158.585 0.216949C124.292 0.216949 96.4919 67.0533 96.4919 149.5C96.4919 231.947 124.292 298.783 158.585 298.783Z" stroke="#DAFF8C" stroke-width="2" stroke-miterlimit="10"/>
</g>
<defs>
<clipPath id="clip0_2_472">
<rect width="221" height="299" fill="white"/>
</clipPath>
</defs>
</svg>
