<svg width="300" height="309" viewBox="0 0 300 309" fill="none" xmlns="http://www.w3.org/2000/svg">
<g clip-path="url(#clip0_2_458)">
<path d="M292.685 60.9693C253.883 35.2471 252.071 35.3483 229.221 64.5566C249.207 33.3279 248.704 31.5849 211.516 3.58731C250.318 29.3095 252.131 29.2083 274.981 0C254.994 31.2287 255.497 32.9718 292.685 60.9693Z" fill="#DAFF8C"/>
<path d="M150 130.347C232.635 130.347 299.625 106.175 299.625 76.3569C299.625 46.5393 232.635 22.3673 150 22.3673C67.3646 22.3673 0.375328 46.5393 0.375328 76.3569C0.375328 106.175 67.3646 130.347 150 130.347Z" stroke="#DAFF8C" stroke-width="2" stroke-miterlimit="10"/>
<path d="M150 184.336C232.635 184.336 299.625 160.164 299.625 130.347C299.625 100.529 232.635 76.3569 150 76.3569C67.3646 76.3569 0.375328 100.529 0.375328 130.347C0.375328 160.164 67.3646 184.336 150 184.336Z" stroke="#DAFF8C" stroke-width="2" stroke-miterlimit="10"/>
<path d="M150 254.636C232.635 254.636 299.625 230.464 299.625 200.646C299.625 170.828 232.635 146.656 150 146.656C67.3646 146.656 0.375328 170.828 0.375328 200.646C0.375328 230.464 67.3646 254.636 150 254.636Z" stroke="#DAFF8C" stroke-width="2" stroke-miterlimit="10"/>
<path d="M150 308.625C232.635 308.625 299.625 284.453 299.625 254.635C299.625 224.818 232.635 200.646 150 200.646C67.3646 200.646 0.375328 224.818 0.375328 254.635C0.375328 284.453 67.3646 308.625 150 308.625Z" stroke="#DAFF8C" stroke-width="2" stroke-miterlimit="10"/>
</g>
<defs>
<clipPath id="clip0_2_458">
<rect width="300" height="309" fill="white"/>
</clipPath>
</defs>
</svg>
